<?xml version="1.0" encoding="UTF-8" standalone="no"?>
<svg
   version="1.0"
   width="16"
   height="16"
   viewBox="0 0 12 12.000001"
   preserveAspectRatio="xMidYMid"
   id="svg224"
   sodipodi:docname="chain.svg"
   inkscape:version="1.2.2 (b0a8486541, 2022-12-01)"
   xmlns:inkscape="http://www.inkscape.org/namespaces/inkscape"
   xmlns:sodipodi="http://sodipodi.sourceforge.net/DTD/sodipodi-0.dtd"
   xmlns="http://www.w3.org/2000/svg"
   xmlns:svg="http://www.w3.org/2000/svg">
  <defs
     id="defs228" />
  <sodipodi:namedview
     id="namedview226"
     pagecolor="#ffffff"
     bordercolor="#000000"
     borderopacity="0"
     inkscape:showpageshadow="2"
     inkscape:pageopacity="0.0"
     inkscape:pagecheckerboard="0"
     inkscape:deskcolor="#d1d1d1"
     inkscape:document-units="pt"
     showgrid="false"
     inkscape:zoom="25.249562"
     inkscape:cx="2.8119299"
     inkscape:cy="1.287151"
     inkscape:window-width="1920"
     inkscape:window-height="1008"
     inkscape:window-x="0"
     inkscape:window-y="0"
     inkscape:window-maximized="1"
     inkscape:current-layer="svg224" />
  <metadata
     id="metadata210">
Created by potrace 1.15, written by Peter Selinger 2001-2017
</metadata>
  <path
     d="M 9.6828174,0.00420448 C 9.0553887,0.08457673 8.4697886,0.51322873 8.002238,1.2344357 7.5662913,1.908491 7.1991293,2.7550787 7.0160131,3.5073629 6.9834797,3.64346 6.9546645,3.7688407 6.9546645,3.7763421 c 0,0.00321 0.022309,-0.00857 0.049265,-0.025719 0.2481829,-0.1639594 0.7993906,-0.3021997 1.200945,-0.3021997 h 0.1487238 l 0.017661,-0.056796 C 8.4168058,3.2426703 8.5311372,2.9201097 8.5971334,2.7561503 8.7598001,2.3532174 8.9252554,2.0638773 9.1371869,1.8152592 9.316585,1.6030764 9.4690269,1.4851971 9.6363412,1.4273291 9.7488136,1.3887504 9.935648,1.3791058 10.050909,1.4069681 c 0.287223,0.066441 0.511238,0.2871969 0.620922,0.6108291 0.151512,0.4457981 0.110613,1.0609137 -0.126415,1.8967852 C 10.41993,4.3571655 10.196844,4.9047685 10.012798,5.2219709 9.7962194,5.5938266 9.5861469,5.8263703 9.3481888,5.9571091 9.0089125,6.1435727 8.6231601,6.0771317 8.3712591,5.7899348 8.2634343,5.6656258 8.2169581,5.5670358 8.1407371,5.296985 8.1333009,5.2734092 8.1258647,5.210183 8.1221466,5.1576731 8.1100628,4.9787109 8.1007676,4.9562067 8.0301238,4.9444188 7.8776818,4.917628 7.5263218,5.1094498 7.1805388,5.4073629 7.070855,5.5016664 7.0773617,5.4834487 7.0996702,5.6688407 7.1814684,6.3568271 7.418497,6.768333 7.9278761,7.10161 8.38892,7.4038096 8.9141011,7.5088294 9.394665,7.3973798 9.8752289,7.2859303 10.381819,6.8947854 10.773149,6.3321796 c 0.306743,-0.4404399 0.533547,-0.9087422 0.768716,-1.5902989 0.210073,-0.6108291 0.327193,-1.1198533 0.382964,-1.6674563 0.02231,-0.2218274 0.02231,-0.6912013 0,-0.8958827 C 11.860692,1.6020048 11.701744,1.1690663 11.412662,0.78756601 11.124509,0.40820899 10.627214,0.11243911 10.132707,0.02456545 10.036966,0.008491 9.7553203,-0.00436856 9.6828174,0.00420448 Z"
     id="path212"
     style="fill:#000000;stroke:none;stroke-width:0.000998051" />
  <path
     d="M 7.9724933,3.6091678 C 7.3999065,3.6756089 6.8505578,3.9124391 6.3690644,4.3003691 6.158992,4.4707583 5.9414833,4.6690099 5.7555785,4.8619033 c -0.048335,0.050367 -0.089234,0.09216 -0.091093,0.093232 -0.00186,0.00107 0.00651,0.091089 0.017661,0.2003948 l 0.02045,0.1993232 0.052983,-0.055725 C 5.7853233,5.268051 5.8866414,5.1576731 5.9805233,5.0526534 6.0753348,4.9487053 6.1543443,4.8629749 6.1571329,4.8629749 c 0.00186,0 -0.027886,0.1628878 -0.066926,0.3611393 -0.03997,0.1993232 -0.070644,0.3643542 -0.068785,0.3654258 9.295e-4,0.00214 0.1022476,-0.066441 0.2249448,-0.1521714 0.1226972,-0.08573 0.2286629,-0.1586013 0.2360991,-0.1618162 0.011154,-0.00536 0.00744,0.022504 -0.015802,0.1253808 -0.057631,0.2496897 -0.115261,0.5068809 -0.1134019,0.5079526 9.295e-4,0.00107 0.072503,-0.036435 0.1580191,-0.081444 C 6.6665121,5.7449264 6.6693006,5.7427831 6.799434,5.6109726 7.108036,5.2980567 7.4138494,5.0601548 7.6759751,4.9272727 7.8841885,4.822253 8.0515028,4.8136799 8.2030152,4.9015536 c 0.061349,0.036435 0.1784686,0.1661026 0.2063544,0.2304004 0.026027,0.057868 0.028815,0.1125212 0.01859,0.2882685 -0.00558,0.1028765 -0.00465,0.1296672 0.00744,0.1553863 0.022309,0.050367 0.077151,0.118951 0.1375696,0.1725325 0.1970591,0.1746757 0.464762,0.2207558 0.7352535,0.1253807 L 9.3890917,5.84566 9.4076817,5.780291 C 9.4606612,5.5938266 9.4978422,5.4020048 9.5127145,5.2412603 9.5322346,5.024791 9.492265,4.6968722 9.4216212,4.500764 9.2914878,4.1364098 9.0191373,3.828852 8.7030991,3.68954 8.5487982,3.6209557 8.4800134,3.6080962 8.2559981,3.6038097 c -0.1096838,-0.00214 -0.2370286,0.00107 -0.2835048,0.00536 z"
     id="path214"
     style="fill:#000000;stroke:none;stroke-width:0.000998051" />
  <path
     d="M 5.0798146,5.679557 C 4.8632355,5.9860431 4.7544812,6.1682202 4.5946031,6.4918525 4.4570335,6.7704763 4.4152049,6.8701379 4.3529268,7.0619597 4.2014144,7.530262 4.1317001,8.0467876 4.1567973,8.5172332 4.1809649,8.9480285 4.2534678,9.1795005 4.4235706,9.3648925 4.4979326,9.4452648 4.5964621,9.5192073 4.6141231,9.5074193 4.6568812,9.4774137 4.8920507,9.2416551 4.9608355,9.1591396 5.1067708,8.9855355 5.1699784,8.8569399 5.1969346,8.6844075 5.213666,8.581531 5.209948,8.5333077 5.1839213,8.4893708 5.1021232,8.3500589 5.1179251,8.1421627 5.231327,7.8817566 5.442329,7.3963082 5.6923709,6.9569399 5.9861005,6.5582936 c 0.022309,-0.030006 0.03904,-0.055725 0.036251,-0.055725 -0.00372,0 -0.047406,0.019289 -0.099459,0.041794 -0.054842,0.024648 -0.092952,0.036435 -0.092952,0.028934 0,-0.00643 0.00837,-0.1178793 0.01859,-0.2475466 0.010225,-0.1296672 0.018591,-0.2486181 0.018591,-0.2646926 0,-0.026791 -0.00744,-0.023576 -0.2435353,0.1253807 C 5.4888053,6.2700251 5.3772624,6.337538 5.3763328,6.3364663 5.3744728,6.3343263 5.3995708,6.2346615 5.4330338,6.1146389 5.5427176,5.7224224 5.5501538,5.69456 5.5473653,5.6913451 5.5464357,5.6892051 5.4423291,5.8328003 5.3177728,6.0085476 c -0.1245562,0.1768189 -0.2305219,0.321489 -0.23424,0.321489 -0.00465,0.00107 -0.00558,-0.00214 -0.00372,-0.0075 0.00279,-0.00429 0.040899,-0.1586013 0.084587,-0.3429216 l 0.079939,-0.3354202 -0.029745,-0.048223 c -0.015802,-0.025719 -0.031604,-0.047152 -0.035322,-0.047152 -0.00279,0 -0.047406,0.05894 -0.099459,0.1307389 z"
     id="path216"
     style="fill:#000000;stroke:none;stroke-width:0.000998051" />
  <path
     d="M 4.0173687,6.1285699 C 3.4568657,6.1832231 2.9214599,6.351469 2.2931016,6.6708147 2.1369416,6.7501153 1.7865111,6.9526534 1.6424348,7.0469568 1.5355396,7.1166128 1.2669071,7.3212941 1.1683776,7.4080962 0.55303271,7.9481977 0.17936406,8.5783161 0.07525738,9.2512998 0.05108975,9.4056145 0.04551261,9.7624673 0.06503261,9.904994 c 0.04275811,0.310773 0.10410669,0.5326 0.22215624,0.801579 0.32812197,0.746926 0.84493735,1.155217 1.62016035,1.278455 0.1431467,0.02358 0.5474896,0.02679 0.7017906,0.0064 0.6162744,-0.08252 1.2938974,-0.328991 1.9334099,-0.704061 C 5.2973232,10.843742 5.7732395,10.396872 6.1106567,9.8139055 6.2919139,9.4999179 6.4090339,9.1569963 6.4582987,8.795857 6.4833958,8.6115366 6.4815368,8.2150335 6.4545806,8.045716 6.3923025,7.6545711 6.2612396,7.3545146 6.0121272,7.0340973 l -0.074362,-0.095375 -0.036251,0.047152 C 5.5891937,7.394165 5.4748623,7.5731272 5.4032889,7.7713787 5.3456585,7.9321232 5.3428699,7.9503409 5.3410108,8.260042 5.3400813,8.5397374 5.3391518,8.5461672 5.3112661,8.6672614 5.2750146,8.8269343 5.2536356,8.8901604 5.2025118,8.9941086 5.0798146,9.2405834 4.8716012,9.4656258 4.516523,9.7324616 4.1577268,10.002512 3.6288276,10.295067 3.2393571,10.439737 2.6723474,10.649777 2.1964311,10.695857 1.860873,10.57262 1.6489415,10.494391 1.5030062,10.371153 1.3923929,10.176116 1.2938633,10.002512 1.2548233,9.847126 1.2548233,9.6370865 1.2557529,9.4720555 1.2836386,9.3381018 1.3487053,9.1870019 1.4779091,8.8901604 1.7790749,8.552597 2.1555321,8.2857611 2.5812541,7.9835615 3.3471819,7.6245654 3.7617496,7.5313336 c 0.07808,-0.017146 0.2862934,-0.042865 0.3485715,-0.042865 0.010225,0 0.01859,-0.016075 0.026956,-0.056796 C 4.225582,7.0180228 4.3566449,6.6547403 4.5499859,6.2903861 4.5853078,6.2228734 4.612264,6.1671486 4.610405,6.166077 4.6094754,6.1639337 4.5676469,6.154289 4.5193116,6.1435727 4.4161345,6.1210685 4.1679515,6.1135671 4.0173687,6.1285699 Z"
     id="path218"
     style="fill:#000000;stroke:none;stroke-width:0.000998051" />
  <path
     style="fill:#cccccc;stroke:#ff0000;stroke-width:0.0135286;stroke-opacity:1"
     d="M 8.8289999,5.8824193 C 8.6813353,5.8336831 8.5422337,5.7300805 8.4699016,5.6149635 8.4339694,5.557778 8.433411,5.5539125 8.433411,5.3622482 8.433411,5.2220159 8.428381,5.1563951 8.415421,5.1274987 8.405521,5.1054387 8.357533,5.0439997 8.30877,4.9909667 8.2351456,4.9108955 8.2059193,4.8894899 8.1364378,4.8647483 7.9729948,4.8065484 7.8320617,4.8328262 7.5955301,4.9656041 7.3537024,5.1013549 7.0756588,5.3232525 6.7954484,5.6041241 6.7002136,5.6995832 6.644851,5.7413019 6.5245545,5.8082563 c -0.083158,0.046284 -0.1530259,0.08216 -0.1552616,0.079723 -0.00224,-0.00244 0.024696,-0.1319314 0.059849,-0.2877672 0.065482,-0.2902929 0.071811,-0.3294818 0.053204,-0.3294818 -0.00589,0 -0.1056028,0.065892 -0.2215826,0.1464261 -0.1159799,0.080534 -0.2141275,0.1426736 -0.2181057,0.1380872 -0.00568,-0.00655 0.091515,-0.5529538 0.1184396,-0.6658182 0.00334,-0.013981 4.648e-4,-0.02542 -0.00638,-0.02542 -0.00684,0 -0.1075773,0.1041682 -0.223852,0.2314848 -0.1162744,0.1273168 -0.2150891,0.2288623 -0.219588,0.2256567 -0.0045,-0.00321 -0.015448,-0.085934 -0.024332,-0.1838407 l -0.016153,-0.1780125 0.05519,-0.055909 C 6.4682843,4.1514108 6.9790019,3.8305408 7.7020926,3.6618486 7.8615857,3.62464 7.8936968,3.6220414 8.194017,3.6220414 H 8.5153093 L 8.644614,3.6746294 C 9.0125033,3.82425 9.3206858,4.1746227 9.4345527,4.5727108 9.5040567,4.8157032 9.5250047,5.1427174 9.4867097,5.3869377 9.4605187,5.5539655 9.3929327,5.8268563 9.3744678,5.840133 9.3662278,5.846053 9.3105948,5.86417 9.2508332,5.880386 9.1145752,5.917359 8.9374513,5.918213 8.8290003,5.882416 Z"
     id="path1204" />
  <g
     id="g453"
     transform="translate(-0.84343467,-0.40253988)">
    <path
       d="M 8.9454532,8.5201661 C 8.9129198,8.5630313 8.8134608,8.6980567 8.725156,8.8223658 8.5383217,9.0827718 8.3375445,9.3185304 8.1851025,9.4546274 c -0.05856,0.05251 -0.1078247,0.095375 -0.1078247,0.095375 -9.296e-4,0.00107 0.00651,0.043937 0.016731,0.097518 0.026956,0.1435985 0.033463,0.4758036 0.012084,0.6451216 -0.028815,0.232543 -0.094811,0.481162 -0.1803277,0.675127 -0.021379,0.04929 -0.035322,0.08894 -0.030674,0.08894 0.00372,0 0.05763,-0.02143 0.118979,-0.04608 0.4749868,-0.199318 0.8570212,-0.459724 1.2585755,-0.85837 C 9.4111447,10.01509 9.7048743,9.6743116 9.9056515,9.4192637 10.095274,9.1770753 10.109217,9.1567143 10.109217,9.1149207 c 0,-0.036435 -0.02603,-0.057868 -0.08366,-0.067513 C 9.9075105,9.0270471 9.6267943,8.9059529 9.4446076,8.7966466 9.2912361,8.7055581 9.1834113,8.6230426 9.0830227,8.5223093 l -0.07808,-0.079301 z"
       id="path220"
       style="fill:#000000;stroke:none;stroke-width:0.000998051" />
    <path
       style="fill:#cccccc;stroke:#ff0000;stroke-width:0.0135286;stroke-opacity:1"
       d="m 7.9438983,10.944211 c 0.0637,-0.162896 0.086207,-0.235947 0.1267122,-0.411274 0.034563,-0.149605 0.039264,-0.195437 0.045025,-0.43895 0.00564,-0.2384317 -0.00594,-0.4506786 -0.028646,-0.5248167 -0.00282,-0.0092 0.030176,-0.046127 0.073319,-0.082057 C 8.2933622,9.376306 8.5399762,9.0873728 8.7767734,8.7648627 l 0.2263065,-0.3082226 0.077724,0.074733 c 0.2087044,0.2006729 0.5725482,0.4132516 0.8526066,0.4981427 0.1604255,0.048628 0.1637965,0.05044 0.1637965,0.088036 0,0.023134 -0.0394,0.087788 -0.116547,0.1912342 C 9.8026793,9.547449 9.3014968,10.120508 9.1459294,10.263231 8.8316713,10.551541 8.4790426,10.7898 8.137952,10.944286 7.8788074,11.061657 7.8979685,11.061664 7.9438983,10.9442 Z"
       id="path1206" />
  </g>
  <path
     style="fill:#ff0000;stroke:#ff0000;stroke-width:0.0135286;stroke-opacity:1"
     d="M 4.536775,9.4548802 C 4.4507614,9.3919933 4.3366309,9.2519982 4.291886,9.1544943 4.194344,8.9419405 4.156239,8.6614909 4.1658323,8.2267506 4.1791338,7.6239612 4.2999818,7.1204568 4.5605613,6.5821408 4.7394768,6.2125294 4.8375741,6.0439971 5.0561061,5.7307895 l 0.119881,-0.1718177 0.028548,0.038263 c 0.015702,0.021045 0.02838,0.046069 0.028174,0.055611 -2.054e-4,0.00954 -0.036261,0.1644221 -0.080122,0.34418 -0.043861,0.179758 -0.077849,0.3293983 -0.075528,0.332534 0.00885,0.011958 0.050931,-0.04162 0.2408885,-0.3067027 0.1077715,-0.1503935 0.1983459,-0.2706782 0.2012768,-0.2672995 0.00293,0.00338 -0.025475,0.116287 -0.063125,0.2509073 -0.037649,0.1346202 -0.07257,0.2663947 -0.077601,0.2928321 l -0.00915,0.048068 0.092513,-0.053494 c 0.050882,-0.029422 0.1594865,-0.095858 0.2413431,-0.1476351 0.081857,-0.051778 0.1509504,-0.091697 0.153541,-0.088711 0.00259,0.00299 -0.00382,0.1187083 -0.014236,0.257159 -0.01042,0.1384506 -0.015659,0.2555182 -0.011641,0.2601501 0.00402,0.00463 0.038919,-0.00307 0.077558,-0.017109 C 5.9470655,6.543683 5.9803845,6.534343 5.9824685,6.53697 5.9845485,6.5396 5.9385075,6.610381 5.8801451,6.6942679 5.5928507,7.1072134 5.2480707,7.7593445 5.1645695,8.0477377 5.1195445,8.2032444 5.1197585,8.355263 5.1651597,8.466427 5.1931477,8.534955 5.1968547,8.559782 5.1912167,8.6409634 5.1786414,8.822073 5.102407,8.9806821 4.9369901,9.1698985 4.8316326,9.2904144 4.6217279,9.4977667 4.6050861,9.4977667 c -0.00531,0 -0.03605,-0.019299 -0.068312,-0.042886 z"
     id="path1208" />
  <path
     style="fill:#00ff00;stroke:#ff0000;stroke-width:0.0135286;stroke-opacity:1"
     d="M 1.9360564,11.981097 C 1.6778455,11.944158 1.3899414,11.849925 1.1822756,11.734379 0.81506102,11.530058 0.55001739,11.233967 0.33512972,10.787997 -0.03532632,10.019167 -0.03179492,9.1890052 0.34505756,8.4541627 0.60878845,7.9399017 1.0565472,7.4556353 1.6219492,7.0731605 1.8866794,6.8940797 2.3891719,6.6222353 2.706841,6.4862427 3.3455114,6.2128306 4.0063099,6.0832938 4.4580473,6.1429524 c 0.062284,0.00823 0.1181942,0.020663 0.1242451,0.027639 0.00627,0.00723 -0.030785,0.097417 -0.086138,0.2096606 -0.1527885,0.3098192 -0.2655521,0.6223326 -0.3409098,0.9447975 -0.016662,0.071301 -0.034692,0.1344777 -0.040065,0.1403931 -0.00537,0.00592 -0.087786,0.021018 -0.1831388,0.033561 C 3.6668716,7.5338856 3.4064558,7.6188718 3.0155345,7.7981042 2.3845683,8.0873942 1.9830548,8.3589112 1.663781,8.7122059 1.445559,8.9536808 1.3140311,9.1900625 1.269504,9.4207997 1.241584,9.5654804 1.250072,9.8143567 1.287486,9.9480695 1.351039,10.175197 1.5072518,10.388641 1.689744,10.497704 2.0175075,10.693587 2.5235498,10.692053 3.1091234,10.493404 3.7166655,10.287299 4.4482062,9.851116 4.8690523,9.4440389 5.1067046,9.2141616 5.2299414,9.0125777 5.3029601,8.734274 5.3339383,8.6162045 5.3378694,8.5741138 5.346292,8.2703282 5.3549939,7.956469 5.3576001,7.9300951 5.3893227,7.8349053 5.4340435,7.7007109 5.4942458,7.5785732 5.5840043,7.4399376 c 0.088299,-0.1363811 0.3409996,-0.47694 0.3538978,-0.47694 0.00502,0 0.039031,0.03922 0.075569,0.087155 0.2584992,0.339132 0.3961867,0.6744802 0.4430092,1.0789819 0.021642,0.1869667 0.00732,0.628001 -0.025815,0.7948585 -0.1438066,0.7242085 -0.5507731,1.363777 -1.199687,1.885369 -0.5464311,0.439217 -1.3039086,0.833995 -1.9844296,1.034235 -0.3882888,0.114252 -0.5577355,0.141441 -0.9113997,0.146242 -0.1697812,0.0023 -0.3493729,-0.0016 -0.399093,-0.0087 z"
     id="path1279" />
  <path
     style="fill:#cccccc;stroke:#ff0000;stroke-width:0.0135286;stroke-opacity:1"
     d="M 4.5130153,9.4254834 C 4.4268564,9.3516658 4.3213389,9.2074972 4.2801542,9.1073249 4.2434931,9.0181555 4.1911611,8.7923885 4.1811456,8.6801886 c -0.00824,-0.092279 -0.00859,-0.5852198 -4.899e-4,-0.6858523 0.00322,-0.039946 0.00909,-0.1020445 0.013053,-0.1379961 0.00396,-0.035952 0.00937,-0.084976 0.012012,-0.1089443 0.00938,-0.085117 0.058484,-0.3216363 0.095799,-0.461474 C 4.3556839,7.0829463 4.4494871,6.834454 4.5605052,6.5998501 4.7255085,6.2511651 4.8316643,6.0691922 5.0821358,5.7056682 l 0.095659,-0.1388353 0.021345,0.032624 c 0.01174,0.017943 0.021328,0.044467 0.021308,0.058943 -1.86e-5,0.014476 -0.034023,0.1701257 -0.075561,0.345889 -0.041538,0.1757634 -0.075541,0.321204 -0.075561,0.3232012 -1.86e-5,0.002 0.00713,0.00363 0.015881,0.00363 0.00875,0 0.1064649,-0.1237615 0.2171335,-0.2750256 0.1106686,-0.151264 0.2025253,-0.2735157 0.2041258,-0.2716703 0.0016,0.00185 -0.021964,0.094558 -0.052367,0.2060275 -0.089698,0.3288747 -0.095528,0.355215 -0.078588,0.3550282 0.00829,-9.65e-5 0.1167151,-0.06186 0.2409474,-0.137263 0.2008271,-0.1218929 0.2619044,-0.1497881 0.240486,-0.1098347 -0.0036,0.00671 -0.00939,0.063451 -0.012877,0.1260979 -0.021023,0.3776926 -0.021227,0.3535802 0.00299,0.3535802 0.012365,0 0.041913,-0.00642 0.065662,-0.014277 0.02375,-0.00785 0.044972,-0.012213 0.047161,-0.00969 0.00219,0.00252 -0.038513,0.06776 -0.090448,0.1449705 -0.2817562,0.4188734 -0.5826085,0.978423 -0.6856456,1.275219 -0.062062,0.1787683 -0.071241,0.3428764 -0.026851,0.4800914 0.070481,0.2178696 0.00109,0.4431544 -0.2136429,0.6936341 -0.1321488,0.1541469 -0.3177626,0.3352303 -0.343616,0.3352303 -0.010585,0 -0.049582,-0.025991 -0.086659,-0.057757 z"
     id="path1281" />
  <path
     style="fill:#999999;stroke:#ff0000;stroke-width:0.0135286;stroke-opacity:1"
     d="M 1.9697576,11.967437 C 1.7384602,11.944141 1.4252546,11.845444 1.2021108,11.725539 0.80896234,11.514281 0.49226846,11.136884 0.28317022,10.630456 0.00313376,9.9522182 0.00232277,9.2879173 0.28073226,8.6334756 0.58046007,7.9289219 1.2086716,7.2908547 2.0579557,6.8283709 2.515618,6.5791474 2.8325017,6.4379003 3.1891815,6.3241405 3.670293,6.1706943 4.1822939,6.1094981 4.5120594,6.1660249 c 0.066332,0.01137 0.069188,-0.00166 -0.060747,0.2771114 -0.1180863,0.2533459 -0.2043234,0.490331 -0.2763906,0.7595386 -0.028873,0.1078548 -0.05717,0.2096659 -0.062882,0.226247 -0.00892,0.025893 -0.028789,0.03278 -0.140805,0.048803 C 3.5393892,7.5394999 3.0509653,7.7300791 2.471776,8.0628024 2.0921003,8.2809132 1.841016,8.4843336 1.6034386,8.7663038 1.4232948,8.9801082 1.3216882,9.1604298 1.2686069,9.3605301 c -0.031998,0.1206229 -0.031772,0.441846 3.978e-4,0.5657505 0.060397,0.2326214 0.2273059,0.4703494 0.405129,0.5770214 0.3525864,0.211512 0.9045386,0.202131 1.5187778,-0.02581 C 3.670545,10.300238 4.1363699,10.042778 4.5589992,9.7224559 4.7742115,9.5593404 4.9068951,9.4367074 5.0321361,9.2851598 5.1467647,9.1464531 5.1966925,9.0649561 5.2527792,8.9250061 5.328984,8.7348559 5.3448843,8.6375329 5.358605,8.2772667 5.3686667,8.0130672 5.3759834,7.933626 5.3966258,7.8644557 5.4333848,7.7412807 5.5125531,7.5784428 5.6013396,7.4433888 5.6890174,7.3100217 5.928768,6.984802 5.9394147,6.9847926 c 0.00388,-3.4e-6 0.032677,0.034311 0.064002,0.076255 0.3615756,0.484139 0.4889034,0.9488319 0.4408023,1.6087435 -0.062065,0.8514797 -0.574531,1.6712169 -1.4252691,2.2798499 -0.6979782,0.499345 -1.648589,0.912375 -2.3058087,1.001846 -0.1514659,0.02062 -0.6012051,0.03027 -0.7433836,0.01595 z"
     id="path1283" />
  <path
     style="fill:#999999;stroke:#ff0000;stroke-width:0.0135286;stroke-opacity:1"
     d="M 8.7862031,7.4200538 C 8.5323014,7.3841989 8.2779565,7.2935668 8.0365206,7.1529148 7.6944437,6.9536334 7.4741597,6.73379 7.3207261,6.4385532 7.2163611,6.2377321 7.119613,5.8699395 7.1020387,5.6072009 L 7.0944538,5.49381 7.2063954,5.3991313 C 7.58755,5.0767549 7.9730541,4.8857865 8.0728479,4.9699133 c 0.016409,0.013832 0.027244,0.060411 0.0413,0.1775194 C 8.1564509,5.4999236 8.277331,5.7439332 8.4914312,5.9090235 8.6352846,6.0199477 8.7546814,6.0595057 8.9500001,6.060955 9.0815237,6.0619313 9.1230804,6.056535 9.2019942,6.028223 9.6108849,5.8815367 9.9479712,5.4646321 10.266638,4.7114836 10.490808,4.18167 10.649522,3.6357501 10.726953,3.1281609 10.765433,2.8759414 10.774163,2.515623 10.746423,2.324431 10.677514,1.8492877 10.475699,1.5502219 10.140672,1.4267751 10.058544,1.3965132 10.014205,1.3895151 9.9012788,1.3889911 9.6058463,1.3876199 9.4362175,1.4752479 9.1784073,1.7624187 8.863178,2.1135467 8.6400003,2.5480374 8.4022884,3.2733936 l -0.052373,0.1598112 -0.106299,0.00321 C 7.8224396,3.4491318 7.3418863,3.558236 7.0771937,3.7012377 c -0.073747,0.039842 -0.1053495,0.050932 -0.1053495,0.03697 0,-0.043272 0.115831,-0.4818477 0.17725,-0.6711296 C 7.3715012,2.3816634 7.7329119,1.6341572 8.0887498,1.1235873 8.5042532,0.52740778 9.0098018,0.15368707 9.5642567,0.0328361 9.7321965,-0.00376847 10.064936,0.01048385 10.265679,0.06288029 c 0.341017,0.08900937 0.662199,0.26150728 0.922416,0.49540336 0.269386,0.24213742 0.502737,0.63723205 0.621286,1.05192115 0.148131,0.5181713 0.166523,1.2091184 0.05026,1.8883666 C 11.728173,4.2667136 11.404226,5.215079 11.0495,5.8703035 10.792624,6.3447859 10.42602,6.791552 10.083974,7.0469523 9.8505435,7.2212508 9.5770274,7.3518198 9.3468903,7.3988156 9.2085964,7.4270564 8.9146404,7.4381911 8.7862031,7.4200538 Z"
     id="path1285" />
</svg>
