<?xml version="1.0" encoding="UTF-8" standalone="no"?>
<svg
   version="1.0"
   width="16"
   height="16"
   viewBox="0 0 12 12.000001"
   preserveAspectRatio="xMidYMid"
   id="svg224"
   sodipodi:docname="chain-linked.svg"
   inkscape:version="1.2.2 (b0a8486541, 2022-12-01)"
   xmlns:inkscape="http://www.inkscape.org/namespaces/inkscape"
   xmlns:sodipodi="http://sodipodi.sourceforge.net/DTD/sodipodi-0.dtd"
   xmlns="http://www.w3.org/2000/svg"
   xmlns:svg="http://www.w3.org/2000/svg">
  <defs
     id="defs228" />
  <sodipodi:namedview
     id="namedview226"
     pagecolor="#ffffff"
     bordercolor="#000000"
     borderopacity="0.25"
     inkscape:showpageshadow="2"
     inkscape:pageopacity="0.0"
     inkscape:pagecheckerboard="0"
     inkscape:deskcolor="#d1d1d1"
     inkscape:document-units="pt"
     showgrid="false"
     inkscape:zoom="24.96875"
     inkscape:cx="16.020025"
     inkscape:cy="16.04005"
     inkscape:window-width="1920"
     inkscape:window-height="1008"
     inkscape:window-x="0"
     inkscape:window-y="0"
     inkscape:window-maximized="1"
     inkscape:current-layer="svg224" />
  <metadata
     id="metadata210">
Created by potrace 1.15, written by Peter Selinger 2001-2017
</metadata>
  <g
     id="g408"
     transform="matrix(0.52107845,0,0,0.52856061,-0.23941202,-0.37343426)">
    <path
       style="fill:#00ff00;stroke:#ff0000;stroke-width:0.025805;stroke-opacity:1"
       d="m 17.452403,11.832252 c -0.284409,-0.09206 -0.552324,-0.287774 -0.691639,-0.505234 -0.06921,-0.108026 -0.07028,-0.115328 -0.07028,-0.477389 0,-0.264905 -0.0097,-0.388865 -0.03465,-0.443451 -0.01906,-0.04167 -0.111495,-0.157733 -0.205415,-0.257915 C 16.308615,9.9970057 16.252324,9.9565697 16.1185,9.9098318 c -0.314798,-0.109942 -0.586241,-0.060302 -1.041811,0.1905202 -1.381596,0.720078 -3.398233,3.20545 -4.178486,4.463604 -0.469095,0.818865 -0.421562,1.75551 -0.42847,2.582944 -0.102444,0.338307 -0.7791709,1.235406 -1.0577997,1.506172 C 9.2245423,18.570618 8.8986479,18.228858 8.7415877,17.882201 8.5343613,17.450332 8.5740653,16.861561 8.5612411,16.573848 8.535204,15.989707 8.5338013,15.938415 8.7843772,14.599756 9.0830459,13.004169 10.463447,11.313841 11.495173,10.15011 12.5269,8.9863799 13.839632,8.1265795 15.25186,7.7447906 15.55905,7.674502 15.65097,7.5623093 16.229399,7.5623093 h 0.618822 l 0.249047,0.099341 c 0.70857,0.2826392 1.302142,0.9445071 1.521455,1.6965113 0.133868,0.4590222 0.174214,1.0767654 0.100455,1.5381064 -0.05044,0.315522 -0.180618,0.831024 -0.216182,0.856104 -0.01587,0.01119 -0.123022,0.04541 -0.238126,0.07604 -0.262438,0.06984 -0.603586,0.07146 -0.812467,0.0038 z"
       id="path1204"
       sodipodi:nodetypes="sssssscssscsscscscssssss" />
    <path
       style="fill:#00ff00;stroke:#ff0000;stroke-width:0.025805;stroke-opacity:1"
       d="m 12.858597,18.560618 c 0.122689,-0.307716 0.166038,-0.445713 0.244053,-0.776912 0.06657,-0.282611 0.07562,-0.369188 0.08672,-0.829194 0.01086,-0.450408 -0.01145,-0.851351 -0.05517,-0.9914 -0.0054,-0.01738 0.05812,-0.08714 0.141215,-0.155009 0.256268,-0.20932 0.731256,-0.755126 1.187338,-1.36436 l 0.435875,-0.582245 0.149701,0.141174 c 0.401973,0.379079 1.102752,0.780649 1.642156,0.941012 0.308987,0.09186 0.315479,0.09528 0.315479,0.166302 0,0.0437 -0.07589,0.165836 -0.224475,0.361249 -0.342799,0.450844 -1.308097,1.533376 -1.607727,1.802985 -0.605274,0.544629 -1.284451,0.994709 -1.941406,1.286539 -0.499123,0.221718 -0.462218,0.221732 -0.373756,-1.62e-4 z"
       id="path1206" />
    <path
       style="fill:#00ff00;stroke:#ff0000;stroke-width:0.025805;stroke-opacity:1"
       d="M 4.1763059,23.352896 C 3.6789809,23.283116 3.1244655,23.105106 2.7244925,22.886835 2.017222,22.500866 1.5067369,21.941538 1.0928543,21.099082 0.37934047,19.646732 0.3861421,18.078524 1.1119757,16.690378 1.6199324,15.718918 2.4823345,14.80412 3.5713224,14.08161 4.0812036,13.743319 5.0490253,13.229794 5.660869,12.972899 6.890975,12.456413 8.1637005,12.211712 9.0337656,12.32441 c 0.1199613,0.01554 0.2276469,0.03903 0.2393013,0.05221 0.012074,0.01365 -0.059293,0.184025 -0.1659059,0.396057 -0.294277,0.585261 -0.5114644,1.175611 -0.6566065,1.78476 -0.032093,0.13469 -0.066818,0.254034 -0.077167,0.265208 -0.010349,0.01117 -0.1690792,0.0397 -0.352733,0.0634 -0.510727,0.06589 -1.0122987,0.226436 -1.7652294,0.565013 -1.2152672,0.54648 -1.988599,1.059386 -2.6035336,1.726774 -0.4203047,0.456156 -0.673633,0.90269 -0.759394,1.338562 -0.053775,0.273307 -0.037428,0.743445 0.034635,0.996033 0.1224065,0.429051 0.423278,0.832256 0.7747657,1.038281 0.6312861,0.37003 1.6059448,0.367133 2.733784,-0.0081 1.170152,-0.389338 2.5791298,-1.213305 3.3896969,-1.98229 0.4577289,-0.434247 0.6950879,-0.815047 0.8357249,-1.340774 0.05966,-0.223038 0.06724,-0.302549 0.08346,-0.876412 0.01676,-0.592893 0.02178,-0.642714 0.08288,-0.822531 0.08613,-0.253499 0.202086,-0.484222 0.374965,-0.74611 0.170067,-0.257629 0.656779,-0.900958 0.681622,-0.900958 0.0097,0 0.07517,0.07409 0.145549,0.16464 0.49788,0.640633 0.763072,1.274119 0.853254,2.038239 0.04168,0.353188 0.0141,1.186319 -0.04972,1.501519 -0.276978,1.368059 -1.060812,2.576228 -2.310647,3.561536 -1.0524495,0.829698 -2.5113829,1.57545 -3.8220947,1.95371 -0.7478603,0.215827 -1.0742218,0.267189 -1.7553938,0.276258 -0.3270056,0.0044 -0.6729068,-0.0031 -0.7686697,-0.01651 z"
       id="path1279" />
    <path
       style="fill:#ff0000;stroke:#ff0000;stroke-width:0.025805;stroke-opacity:1"
       d="M 4.2412158,23.327091 C 3.7957272,23.283084 3.1924803,23.096642 2.7626959,22.870137 2.0054757,22.471062 1.39551,21.758143 0.9927781,20.801482 0.45341619,19.520264 0.45185419,18.265373 0.98808249,17.029107 1.5653707,15.698177 2.7753324,14.492843 4.4110889,13.619192 c 0.8814767,-0.470793 1.491808,-0.737614 2.1787881,-0.952511 0.9266408,-0.289866 1.912776,-0.405468 2.547918,-0.298686 0.1277587,0.02148 0.1332585,-0.0031 -0.1170014,0.523474 -0.2274391,0.478581 -0.3935354,0.926255 -0.5323398,1.434799 -0.05561,0.203741 -0.1101115,0.396067 -0.1211133,0.427389 -0.017181,0.04891 -0.055449,0.06192 -0.2711963,0.09219 -0.8317525,0.116694 -1.7724773,0.476706 -2.88802,1.105233 -0.7312714,0.41202 -1.2148701,0.796289 -1.6724541,1.328942 -0.3469645,0.403885 -0.5426631,0.74452 -0.6448999,1.122517 -0.06163,0.227862 -0.061195,0.834665 7.662e-4,1.068725 0.1163274,0.439432 0.4378007,0.888508 0.7802953,1.090017 0.6790963,0.399555 1.7421792,0.381834 2.9252294,-0.04876 0.9199422,-0.334832 1.8171402,-0.821184 2.631142,-1.426286 0.4145078,-0.308131 0.6700621,-0.53979 0.9112819,-0.826069 0.220779,-0.262022 0.316942,-0.415974 0.424967,-0.680345 0.146774,-0.359201 0.177399,-0.543048 0.203825,-1.223605 0.01938,-0.499083 0.03347,-0.649151 0.07323,-0.779816 0.0708,-0.232683 0.223281,-0.54029 0.394287,-0.795412 0.168871,-0.251936 0.630641,-0.866289 0.651147,-0.866307 0.0075,-6e-6 0.06294,0.06482 0.12327,0.144049 0.69641,0.914557 0.941648,1.792381 0.849004,3.03898 -0.119539,1.608479 -1.106571,3.156995 -2.745128,4.306726 -1.3443353,0.943283 -3.1752513,1.723513 -4.4410838,1.892527 -0.2917297,0.03895 -1.1579461,0.05718 -1.4317871,0.03013 z"
       id="path1283" />
    <path
       style="fill:#0000ff;stroke:#ff0000;stroke-width:0.025805;stroke-opacity:1"
       d="m 17.369974,14.736905 c -0.489025,-0.06773 -0.978904,-0.238939 -1.44392,-0.504636 -0.658854,-0.376451 -1.08313,-0.791744 -1.37865,-1.349458 -0.201011,-0.379359 -0.387352,-1.074133 -0.421201,-1.570457 l -0.01461,-0.2142 0.215605,-0.178852 c 0.734119,-0.608981 1.476616,-0.9697283 1.668823,-0.810809 0.0316,0.02613 0.05247,0.114118 0.07954,0.335341 0.08148,0.665869 0.314297,1.126813 0.726663,1.438675 0.277068,0.20954 0.507031,0.284267 0.883223,0.287005 0.25332,0.0018 0.33336,-0.0084 0.485351,-0.06183 0.787541,-0.277097 1.436783,-1.064646 2.050549,-2.4873732 0.431761,-1.0008387 0.737452,-2.0321031 0.886586,-2.9909592 0.0741,-0.4764526 0.09092,-1.1571082 0.03751,-1.5182776 C 21.012712,4.2135093 20.624007,3.6485623 19.978732,3.4153664 19.82055,3.3582004 19.735151,3.3449804 19.51765,3.3439904 18.948635,3.3414004 18.621923,3.5069329 18.12537,4.04941 17.518225,4.7127047 17.088375,5.5334748 16.630532,6.9037013 L 16.52966,7.205591 16.324924,7.211651 c -0.811204,0.024023 -1.73677,0.230125 -2.246579,0.5002609 -0.142039,0.075263 -0.202907,0.096213 -0.202907,0.069839 0,-0.081743 0.223095,-0.9102294 0.341391,-1.2677903 0.428364,-1.2947754 1.124456,-2.7068442 1.809815,-3.6713311 0.800277,-1.1262066 1.773985,-1.8321798 2.841888,-2.06047205 0.323459,-0.0691475 0.96433,-0.0422243 1.350969,0.0567547 0.656811,0.16814225 1.275422,0.49399765 1.776611,0.93583655 0.51885,0.4574072 0.968292,1.2037566 1.196622,1.9871207 0.285308,0.9788461 0.320731,2.2840724 0.09681,3.567199 -0.253222,1.4510511 -0.877156,3.2425506 -1.560373,4.4802956 -0.494754,0.896316 -1.200849,1.740275 -1.859644,2.222736 -0.449597,0.329257 -0.9764,0.575907 -1.419654,0.664684 -0.26636,0.05335 -0.832531,0.07438 -1.079907,0.04012 z"
       id="path1285" />
  </g>
</svg>
